<?xml version="1.0" encoding="UTF-8"?>
<!DOCTYPE svg PUBLIC "-//W3C//DTD SVG 1.1//EN" "http://www.w3.org/Graphics/SVG/1.1/DTD/svg11.dtd">
<!-- Creator: CorelDRAW 2020 (64-Bit) -->
<svg xmlns="http://www.w3.org/2000/svg" xml:space="preserve" width="249.547mm" height="249.547mm" version="1.1" style="shape-rendering:geometricPrecision; text-rendering:geometricPrecision; image-rendering:optimizeQuality; fill-rule:evenodd; clip-rule:evenodd"
viewBox="0 0 24954.72 24954.72"
 xmlns:xlink="http://www.w3.org/1999/xlink"
 xmlns:xodm="http://www.corel.com/coreldraw/odm/2003">
 <defs>
  <style type="text/css">
   <![CDATA[
    .fil0 {fill:red}
    .fil1 {fill:white}
   ]]>
  </style>
 </defs>
 <g id="Layer_x0020_1">
  <metadata id="CorelCorpID_0Corel-Layer"/>
  <rect class="fil0" x="-0" y="-0" width="24954.72" height="24954.72"/>
  <rect class="fil1" x="5107.68" y="20703.24" width="2429.67" height="2429.67"/>
  <rect class="fil1" x="8262.05" y="20703.24" width="2429.67" height="2429.67"/>
  <rect class="fil1" x="11416.42" y="20703.24" width="2429.67" height="2429.67"/>
  <rect class="fil1" x="14570.79" y="20703.24" width="2429.67" height="2429.67"/>
  <rect class="fil1" x="17725.16" y="20703.24" width="2429.67" height="2429.67"/>
  <rect class="fil1" x="5107.68" y="17596.49" width="2429.67" height="2429.67"/>
  <rect class="fil1" x="8262.05" y="17596.49" width="2429.67" height="2429.67"/>
  <rect class="fil1" x="11416.42" y="17596.49" width="2429.67" height="2429.67"/>
  <rect class="fil1" x="14570.79" y="17596.49" width="2429.67" height="2429.67"/>
  <rect class="fil1" x="17725.16" y="17596.49" width="2429.67" height="2429.67"/>
  <rect class="fil1" x="8262.05" y="7990.5" width="2429.67" height="2429.67"/>
  <rect class="fil1" x="11416.42" y="7990.5" width="2429.67" height="2429.67"/>
  <rect class="fil1" x="14570.79" y="7990.5" width="2429.67" height="2429.67"/>
  <rect class="fil1" x="11416.42" y="4788.5" width="2429.67" height="2429.67"/>
  <rect class="fil1" x="11416.42" y="1681.76" width="2429.67" height="2429.67"/>
  <rect class="fil1" x="20843.28" y="20703.24" width="2429.67" height="2429.67"/>
  <rect class="fil1" x="20843.28" y="17596.49" width="2429.67" height="2429.67"/>
  <rect class="fil1" x="20843.28" y="14394.49" width="2429.67" height="2429.67"/>
  <rect class="fil1" x="1681.76" y="20703.24" width="2429.67" height="2429.67"/>
  <rect class="fil1" x="1681.76" y="17596.49" width="2429.67" height="2429.67"/>
  <rect class="fil1" x="1681.76" y="14394.49" width="2429.67" height="2429.67"/>
  <rect class="fil1" x="8262.05" y="14394.49" width="2429.67" height="2429.67"/>
  <rect class="fil1" x="11416.42" y="14394.49" width="2429.67" height="2429.67"/>
  <rect class="fil1" x="14570.79" y="14394.49" width="2429.67" height="2429.67"/>
  <rect class="fil1" x="8262.05" y="11262.52" width="2429.67" height="2429.67"/>
  <rect class="fil1" x="11416.42" y="11262.52" width="2429.67" height="2429.67"/>
  <rect class="fil1" x="14570.79" y="11262.52" width="2429.67" height="2429.67"/>
 </g>
</svg>
